<svg width="24" height="24" viewBox="0 0 24 24" fill="none" xmlns="http://www.w3.org/2000/svg">
<g clip-path="url(#clip0_57_466)">
<path d="M19.1445 14.9901C19.119 15.0156 19.0965 15.045 19.0713 15.0705L12 21.7518L4.97068 15.1113C4.93137 15.072 4.89838 15.0294 4.85936 14.9883C1.91607 15.9003 0 17.3556 0 18.9999C0 21.7617 5.37299 24 12 24C18.6291 24 24 21.7617 24 18.9999C24 17.3556 22.086 15.9003 19.1445 14.9901Z" fill="#E65222"/>
<path d="M19.9989 7.9998C19.9989 3.58588 16.4186 0 12 0C7.584 0.00181641 3.99988 3.58172 3.99988 8.00191C3.99988 10.2087 4.89537 12.2088 6.3438 13.6563L12 18.9999L17.6571 13.6542C19.1043 12.2091 20.0001 10.209 20.0001 7.9998H19.9989ZM12 12C9.79017 12 8.00007 10.2108 8.00007 7.9998C8.00007 5.79088 9.79017 3.9999 12 3.9999C14.2089 3.9999 15.9999 5.79088 15.9999 7.9998C15.9999 10.2108 14.2089 12 12 12Z" fill="#E65222"/>
</g>
<defs>
<clipPath id="clip0_57_466">
<rect width="24" height="24" fill="white"/>
</clipPath>
</defs>
</svg>
