<svg width="24" height="24" viewBox="0 0 24 24" fill="none" xmlns="http://www.w3.org/2000/svg">
<g clip-path="url(#clip0_57_207)">
<path fill-rule="evenodd" clip-rule="evenodd" d="M8.65855 20.4493C8.84039 20.4493 8.98796 20.5969 8.98796 20.7787C8.98796 20.9605 8.84039 21.1081 8.65855 21.1081H2.85945C2.67752 21.1081 2.53004 20.9606 2.53004 20.7787V14.9795C2.53004 14.7978 2.67766 14.6501 2.85945 14.6501C3.04124 14.6501 3.18886 14.7978 3.18886 14.9795V20.4493H8.65855ZM3.18886 8.1602C3.18886 8.34199 3.04124 8.48961 2.85945 8.48961C2.67766 8.48961 2.53004 8.34199 2.53004 8.1602V2.36105C2.53004 2.17912 2.67752 2.03164 2.85945 2.03164H8.65855C8.84039 2.03164 8.98796 2.17926 8.98796 2.36105C8.98796 2.54288 8.84039 2.69046 8.65855 2.69046H3.18886V8.1602ZM20.9477 14.9795C20.9477 14.7978 21.0953 14.6501 21.2771 14.6501C21.4589 14.6501 21.6065 14.7978 21.6065 14.9795V20.7787C21.6065 20.9606 21.459 21.1081 21.2771 21.1081H15.4779C15.2962 21.1081 15.1485 20.9605 15.1485 20.7787C15.1485 20.5969 15.2962 20.4493 15.4779 20.4493H20.9477V14.9795ZM15.4779 2.69046C15.2962 2.69046 15.1485 2.54288 15.1485 2.36105C15.1485 2.17926 15.2962 2.03164 15.4779 2.03164H21.2771C21.459 2.03164 21.6065 2.17912 21.6065 2.36105V8.1602C21.6065 8.34199 21.4589 8.48961 21.2771 8.48961C21.0953 8.48961 20.9477 8.34199 20.9477 8.1602V2.69046H15.4779ZM12.3299 3.84194C12.3299 4.02378 12.1823 4.17135 12.0005 4.17135C11.8187 4.17135 11.6711 4.02378 11.6711 3.84194V0.706365C11.6711 0.524577 11.8187 0.376953 12.0005 0.376953C12.1823 0.376953 12.3299 0.524577 12.3299 0.706365V3.84194ZM3.84194 11.6711C4.02378 11.6711 4.17135 11.8187 4.17135 12.0005C4.17135 12.1823 4.02378 12.3299 3.84194 12.3299H0.706365C0.524577 12.3299 0.376953 12.1823 0.376953 12.0005C0.376953 11.8187 0.524577 11.6711 0.706365 11.6711H3.84194ZM11.6711 20.159C11.6711 19.9772 11.8187 19.8296 12.0005 19.8296C12.1823 19.8296 12.3299 19.9772 12.3299 20.159V23.2946C12.3299 23.4764 12.1823 23.624 12.0005 23.624C11.8187 23.624 11.6711 23.4764 11.6711 23.2946V20.159ZM20.159 12.3299C19.9772 12.3299 19.8296 12.1823 19.8296 12.0005C19.8296 11.8187 19.9772 11.6711 20.159 11.6711H23.2946C23.4764 11.6711 23.624 11.8187 23.624 12.0005C23.624 12.1823 23.4764 12.3299 23.2946 12.3299H20.159ZM6.01747 9.02331C6.01747 8.21507 6.67272 7.55982 7.48142 7.55982C8.28966 7.55982 8.94495 8.21507 8.94495 9.02331C8.94495 9.83206 8.28966 10.4873 7.48142 10.4873C6.67272 10.4873 6.01747 9.83206 6.01747 9.02331ZM9.17677 15.6256C7.30552 16.0757 4.31427 15.6997 4.31427 14.4978C4.31427 12.7488 5.73244 11.3306 7.48142 11.3306C7.90373 11.3306 8.30669 11.4133 8.67507 11.5634C8.16933 12.2488 7.87037 13.0961 7.87037 14.0131C7.87037 14.62 8.245 15.1542 8.94829 15.5183C9.02062 15.5558 9.09691 15.5915 9.17677 15.6256ZM15.2805 11.5027C15.6042 11.3912 15.9515 11.3306 16.313 11.3306C18.062 11.3306 19.4797 12.7488 19.4797 14.4978C19.4797 15.6714 16.6274 16.0575 14.751 15.656C14.8577 15.613 14.9585 15.5671 15.0527 15.5183C15.756 15.1542 16.1306 14.62 16.1306 14.0131C16.1306 13.0688 15.8138 12.1985 15.2805 11.5027ZM14.849 9.02331C14.849 8.21507 15.5043 7.55982 16.313 7.55982C17.1212 7.55982 17.7765 8.21507 17.7765 9.02331C17.7765 9.83206 17.1212 10.4873 16.313 10.4873C15.5043 10.4873 14.849 9.83206 14.849 9.02331ZM10.3961 8.01248C10.3961 7.12655 11.1143 6.40834 12.0008 6.40834C12.8866 6.40834 13.6049 7.12655 13.6049 8.01248C13.6049 8.89893 12.8866 9.61714 12.0008 9.61714C11.1143 9.61714 10.3961 8.89893 10.3961 8.01248ZM15.4718 14.0131C15.4718 15.9302 8.52919 15.9302 8.52919 14.0131C8.52919 12.096 10.0837 10.5415 12.0008 10.5415C13.9178 10.5415 15.4718 12.096 15.4718 14.0131Z" fill="#E65222"/>
</g>
<defs>
<clipPath id="clip0_57_207">
<rect width="24" height="24" fill="white"/>
</clipPath>
</defs>
</svg>
