<svg width="24" height="24" viewBox="0 0 24 24" fill="none" xmlns="http://www.w3.org/2000/svg">
<g clip-path="url(#clip0_57_101)">
<path d="M12 0.890625C14.5628 0.892547 17.0462 1.78022 19.0295 3.40331C21.0129 5.0264 22.3743 7.28512 22.8831 9.79692C23.3919 12.3087 23.0169 14.9192 21.8216 17.1862C20.6264 19.4532 18.6842 21.2374 16.3242 22.2366C13.6133 23.3613 10.5676 23.368 7.85182 22.2552C5.13603 21.1423 2.97077 19.0003 1.82869 16.2967C0.686599 13.593 0.660435 10.5474 1.75591 7.82454C2.85138 5.1017 4.97952 2.92279 7.67578 1.76344C9.04376 1.18444 10.5145 0.887569 12 0.890625ZM12 0C5.37281 0 0 5.37281 0 12C0 18.6272 5.37281 24 12 24C18.6272 24 24 18.6272 24 12C24 5.37281 18.6272 0 12 0Z" fill="white"/>
<path d="M17.6028 6.39522C17.5421 6.33449 17.4665 6.29082 17.3835 6.2686C17.3006 6.24638 17.2133 6.2464 17.1303 6.26866L4.0522 9.77444C3.95312 9.80098 3.86488 9.85799 3.79996 9.9374C3.73504 10.0168 3.6967 10.1146 3.69038 10.217C3.68406 10.3194 3.71007 10.4211 3.76473 10.5079C3.8194 10.5947 3.89995 10.6622 3.99501 10.7007L10.617 13.3852L13.3006 20.0091C13.3374 20.0993 13.4002 20.1765 13.481 20.2308C13.5618 20.2852 13.657 20.3142 13.7544 20.3143H13.7806C13.8831 20.3079 13.9809 20.2695 14.0603 20.2045C14.1397 20.1395 14.1967 20.0511 14.2231 19.9519L17.7294 6.86772C17.7517 6.78479 17.7517 6.69744 17.7295 6.61449C17.7073 6.53153 17.6636 6.4559 17.6028 6.39522Z" fill="white"/>
</g>
<defs>
<clipPath id="clip0_57_101">
<rect width="24" height="24" fill="white"/>
</clipPath>
</defs>
</svg>
