<svg width="24" height="24" viewBox="0 0 24 24" fill="none" xmlns="http://www.w3.org/2000/svg">
<g clip-path="url(#clip0_57_413)">
<path d="M12 0.890625C14.5628 0.892547 17.0462 1.78022 19.0295 3.40331C21.0129 5.0264 22.3743 7.28512 22.8831 9.79692C23.3919 12.3087 23.0169 14.9192 21.8216 17.1862C20.6264 19.4532 18.6842 21.2374 16.3242 22.2366C13.6133 23.3613 10.5676 23.368 7.85182 22.2552C5.13603 21.1423 2.97077 19.0003 1.82869 16.2967C0.686599 13.593 0.660435 10.5474 1.75591 7.82454C2.85138 5.1017 4.97952 2.92279 7.67578 1.76344C9.04376 1.18444 10.5145 0.887569 12 0.890625ZM12 0C5.37281 0 0 5.37281 0 12C0 18.6272 5.37281 24 12 24C18.6272 24 24 18.6272 24 12C24 5.37281 18.6272 0 12 0Z" fill="#E65222"/>
<path d="M17.6028 6.39327C17.5421 6.33254 17.4665 6.28887 17.3835 6.26665C17.3006 6.24443 17.2133 6.24445 17.1303 6.26671L4.0522 9.77249C3.95312 9.79903 3.86488 9.85603 3.79996 9.93545C3.73504 10.0149 3.6967 10.1127 3.69038 10.215C3.68406 10.3174 3.71007 10.4192 3.76473 10.506C3.8194 10.5928 3.89995 10.6602 3.99501 10.6987L10.617 13.3833L13.3006 20.0072C13.3374 20.0974 13.4002 20.1745 13.481 20.2289C13.5618 20.2832 13.657 20.3123 13.7544 20.3123H13.7806C13.8831 20.306 13.9809 20.2676 14.0603 20.2025C14.1397 20.1375 14.1967 20.0492 14.2231 19.95L17.7294 6.86577C17.7517 6.78284 17.7517 6.69549 17.7295 6.61254C17.7073 6.52958 17.6636 6.45395 17.6028 6.39327Z" fill="#E65222"/>
</g>
<defs>
<clipPath id="clip0_57_413">
<rect width="24" height="24" fill="white"/>
</clipPath>
</defs>
</svg>
