<svg width="40" height="40" viewBox="0 0 40 40" fill="none" xmlns="http://www.w3.org/2000/svg">
<path d="M32.8125 2.8125H7.1875C6.02718 2.8125 4.91438 3.27344 4.09391 4.09391C3.27344 4.91438 2.8125 6.02718 2.8125 7.1875V32.8125C2.8125 33.9728 3.27344 35.0856 4.09391 35.9061C4.91438 36.7266 6.02718 37.1875 7.1875 37.1875H19.7398V22.8847H16.8793V17.1636H19.7162V14.5781C19.7162 12.2381 20.8309 8.58234 25.7364 8.58234L30.1555 8.60008V13.5017H26.9463C26.4245 13.5017 25.682 13.7616 25.682 14.8761V17.164H30.2285L29.7066 22.8851H25.4609V37.1875H32.8125C33.387 37.1875 33.9559 37.0743 34.4867 36.8545C35.0175 36.6346 35.4998 36.3124 35.9061 35.9061C36.3124 35.4998 36.6346 35.0175 36.8545 34.4867C37.0743 33.9559 37.1875 33.387 37.1875 32.8125V7.1875C37.1875 6.61297 37.0743 6.04406 36.8545 5.51326C36.6346 4.98246 36.3124 4.50016 35.9061 4.09391C35.4998 3.68765 35.0175 3.36539 34.4867 3.14553C33.9559 2.92566 33.387 2.8125 32.8125 2.8125Z" fill="#E65222"/>
</svg>
