<svg width="24" height="24" viewBox="0 0 24 24" fill="none" xmlns="http://www.w3.org/2000/svg">
<path d="M19.9759 13H16.9577C15.8159 13 14.7495 13.49 14 14.29L14.2565 14.39C16.1982 15.12 17.501 16.995 17.501 19.06V19.5C17.501 19.675 17.4708 19.845 17.4105 20H20.4789V17C20.4789 16.725 20.7052 16.5 20.9819 16.5C21.2586 16.5 21.4849 16.725 21.4849 17V20H23.497C23.7736 20 24 19.775 24 19.5V17C24 14.795 22.1942 13 19.9759 13Z" fill="#E65222"/>
<path d="M5.5 12C7.433 12 9 10.433 9 8.5C9 6.567 7.433 5 5.5 5C3.567 5 2 6.567 2 8.5C2 10.433 3.567 12 5.5 12Z" fill="#E65222"/>
<path d="M12 15C13.6569 15 15 13.6569 15 12C15 10.3431 13.6569 9 12 9C10.3431 9 9 10.3431 9 12C9 13.6569 10.3431 15 12 15Z" fill="#E65222"/>
<path d="M0.491266 20H2.45633V16.9871C2.45633 16.7109 2.6774 16.4849 2.9476 16.4849C3.21779 16.4849 3.43886 16.7109 3.43886 16.9871V20H6.43559C6.37664 19.8443 6.34716 19.6736 6.34716 19.4978V19.056C6.34716 17.1779 7.39356 15.4555 9 14.6069C8.62173 14.2052 8.33188 13.7231 8.15011 13.1908C7.89465 13.1004 7.62937 13.0351 7.35917 13.005C6.76965 13.3063 6.10644 13.472 5.40393 13.472C4.70142 13.472 4.03821 13.3013 3.44378 13C1.50328 13.2461 0 14.9433 0 16.9871V19.4978C0 19.774 0.22107 20 0.491266 20Z" fill="#E65222"/>
<path d="M14.1586 15C13.5198 15.3583 12.7819 15.5615 12 15.5615C11.5209 15.5615 11.0584 15.4866 10.6289 15.3422C10.3535 15.2567 10.0892 15.139 9.84141 15C8.17841 15.6096 7 17.1711 7 18.9947V19.4652C7 19.7594 7.2478 20 7.55066 20H16.4493C16.7522 20 17 19.7594 17 19.4652V18.9947C17 17.1711 15.8216 15.6096 14.1586 15Z" fill="#E65222"/>
<path d="M21.8392 7.16153C21.7266 7.00476 21.6034 6.85844 21.464 6.71735C21.791 6.42471 22 6.01711 22 5.5677C22 4.70546 21.2764 4 20.392 4C19.5773 4 18.8752 4.62185 18.7894 5.41615C18.7841 5.46841 18.8002 5.52067 18.8109 5.5677C18.7841 5.5677 18.7626 5.5677 18.7412 5.5677C16.758 5.5677 15.1286 7.07792 15 8.98006C16.1685 9.04799 19.4809 9.04799 21.8392 7.16153Z" fill="#E65222"/>
<path d="M15 9.60526C15.3543 10.9737 16.7715 12 18.457 12C20.4107 12 22 10.6228 22 8.92982C22 8.60526 21.9443 8.29386 21.833 8C19.7223 9.40789 17.0347 9.61842 15.5922 9.61842C15.3695 9.61842 15.167 9.61404 15 9.60526Z" fill="#E65222"/>
</svg>
