<svg width="24" height="24" viewBox="0 0 24 24" fill="none" xmlns="http://www.w3.org/2000/svg">
<g clip-path="url(#clip0_57_211)">
<mask id="mask0_57_211" style="mask-type:luminance" maskUnits="userSpaceOnUse" x="0" y="-2" width="24" height="26">
<path d="M24 0H0V24H24V0Z" fill="white"/>
<path d="M19.0258 10.2125C19.0258 15.837 10.5891 24 10.5891 24C10.5891 24 2.15234 15.8371 2.15234 10.2125C2.15234 5.55305 5.92958 1.77577 10.5891 1.77577C15.2486 1.77577 19.0258 5.55305 19.0258 10.2125Z" fill="white"/>
<path d="M15.5315 10.1572C15.5315 12.8868 13.3187 15.0996 10.5891 15.0996C7.85949 15.0996 5.64671 12.8868 5.64671 10.1572C5.64671 7.42763 7.85949 5.2148 10.5891 5.2148C13.3187 5.2148 15.5315 7.42763 15.5315 10.1572Z" stroke="black" stroke-width="2" stroke-miterlimit="10"/>
<path d="M22.4003 5.10458C22.4003 8.312 19.8002 10.9121 16.5927 10.9121C13.3853 10.9121 10.7852 8.312 10.7852 5.10458C10.7852 1.89716 13.3853 -0.702999 16.5927 -0.702999C19.8002 -0.702999 22.4003 1.89716 22.4003 5.10458Z" fill="white"/>
<path d="M22.4003 5.10458C22.4003 8.312 19.8002 10.9121 16.5927 10.9121C13.3853 10.9121 10.7852 8.312 10.7852 5.10458C10.7852 1.89716 13.3853 -0.702999 16.5927 -0.702999C19.8002 -0.702999 22.4003 1.89716 22.4003 5.10458Z" stroke="black" stroke-width="2" stroke-miterlimit="10"/>
<path d="M15.4075 3.01723C15.8808 3.01723 16.3052 3.22602 16.5943 3.55616C16.8834 3.22602 17.3077 3.01723 17.7811 3.01723C18.6522 3.01723 19.3585 3.72341 19.3585 4.59458C19.3585 5.46402 18.6196 6.4858 16.5943 7.75391C14.569 6.4858 13.8301 5.46402 13.8301 4.59458C13.8301 3.72341 14.5363 3.01723 15.4075 3.01723Z" stroke="black" stroke-width="2" stroke-miterlimit="10"/>
</mask>
<g mask="url(#mask0_57_211)">
<mask id="mask1_57_211" style="mask-type:luminance" maskUnits="userSpaceOnUse" x="0" y="0" width="24" height="24">
<path d="M0 1.90735e-06H24V24H0V1.90735e-06Z" fill="white"/>
</mask>
<g mask="url(#mask1_57_211)">
<path d="M19.0258 10.2125C19.0258 15.837 10.5891 24 10.5891 24C10.5891 24 2.15234 15.8371 2.15234 10.2125C2.15234 5.55305 5.92958 1.77577 10.5891 1.77577C15.2486 1.77577 19.0258 5.55305 19.0258 10.2125Z" fill="#E65222"/>
<path d="M15.5315 10.1572C15.5315 12.8868 13.3187 15.0996 10.5891 15.0996C7.85949 15.0996 5.64671 12.8868 5.64671 10.1572C5.64671 7.42763 7.85949 5.2148 10.5891 5.2148C13.3187 5.2148 15.5315 7.42763 15.5315 10.1572Z" stroke="white" stroke-width="2" stroke-miterlimit="10"/>
<path d="M22.4003 5.10458C22.4003 8.312 19.8002 10.9121 16.5927 10.9121C13.3853 10.9121 10.7852 8.312 10.7852 5.10458C10.7852 1.89716 13.3853 -0.702999 16.5927 -0.702999C19.8002 -0.702999 22.4003 1.89716 22.4003 5.10458Z" fill="#E65222"/>
<path d="M22.4003 5.10458C22.4003 8.312 19.8002 10.9121 16.5927 10.9121C13.3853 10.9121 10.7852 8.312 10.7852 5.10458C10.7852 1.89716 13.3853 -0.702999 16.5927 -0.702999C19.8002 -0.702999 22.4003 1.89716 22.4003 5.10458Z" stroke="white" stroke-width="2" stroke-miterlimit="10"/>
<path d="M16.7266 7.96582C17.7506 7.32462 18.4664 6.73614 18.9277 6.18555C19.3905 5.63327 19.6084 5.10539 19.6084 4.59473C19.6084 3.58553 18.7904 2.76767 17.7813 2.76758C17.3271 2.76758 16.9131 2.93505 16.5938 3.20898C16.2745 2.93537 15.8611 2.76758 15.4072 2.76758C14.3981 2.76771 13.5801 3.58555 13.5801 4.59473C13.5801 5.10539 13.798 5.63328 14.2608 6.18555C14.7221 6.73615 15.4379 7.32461 16.4619 7.96582L16.5947 8.04883L16.7266 7.96582Z" stroke="white" stroke-width="0.5" stroke-miterlimit="10"/>
</g>
</g>
</g>
<defs>
<clipPath id="clip0_57_211">
<rect width="24" height="24" fill="white"/>
</clipPath>
</defs>
</svg>
