<?xml version="1.0" encoding="UTF-8"?>
<svg id="Layer_1" xmlns="http://www.w3.org/2000/svg" version="1.1" viewBox="0 0 315.2 203.97">
  <!-- Generator: Adobe Illustrator 30.5.1, SVG Export Plug-In . SVG Version: 2.1.4 Build 3)  -->
  <defs>
    <style>
      .st0 {
        fill: #e65222;
      }
    </style>
  </defs>
  <path class="st0" d="M157.6,203.97C70.7,203.97,0,158.22,0,101.98S70.7,0,157.6,0s157.6,45.75,157.6,101.98-70.7,101.98-157.6,101.98ZM157.6,4C72.9,4,4,47.96,4,101.98s68.9,97.98,153.6,97.98,153.6-43.96,153.6-97.98S242.29,4,157.6,4Z"/>
  <g>
    <path d="M59.92,82.74c-3.64,3.84-10.11,11.19-14.99,11.45-6.75.41-10.41-4.21-11.44-10.07-1.27-7.2,2.61-17.03,6.58-22.91,4.66-7.38,17.73-21.86,40.38-28.53,1.56-.45,2.54-.28,3.68.82,1.14,1.09,2.17,3.5,2.45,5.09.38,2.18-1.15,3.74-2.64,5.13-10.22,9.57-11.88,9.95-12.64,10.08-.67.12-1.18-.31-1.29-.98-.15-.84,1.32-2.3,1.83-2.83l3.01-3.47-.2-.14c-23.73,11.78-35.03,34.83-33.37,38.86.73,1.68,1.65,2.99,3.49,2.66,1.76-.31,4-2.26,5.24-3.6l26.54-28.67c.41-.59.98-1.29,1.73-1.43.75-.13,2.61.58,3.35.88,1.01.34,2.3.8,2.49,1.89.15.84-.44,2.41-.66,3.14-2.32,7.92-6.3,16.13-10.96,27.4l.2.14,16.32-15.14c.48,3.71,1.19,4.28-8.84,13.99l-11.87,11.5c-2.61,5.29-12.83,21.25-18.52,22.25-2.09.37-3.31-1.14-3.72-2.97-1.24-5.56,4.9-14.33,12.39-19.79,3.96-7.43,7.62-15.07,9.75-23.04l-.2-.14-8.1,8.42Z"/>
    <path d="M122.27,71.66c-2.93,5.44-6.25,8.09-12.37,9.17-2.88,4.22-6.51,7.62-11.79,8.55-4.35.77-9.14-2.88-10.82-10.44-1.28-6.25,1.08-10.98,5.14-15.41,3.87-4.48,9.5-7.8,14.56-8.96,1.83-.41,4.74-.06,5.14,2.2.22,1.26-.69,1.94-1.53,2.6,2.63.23,3.44,1.9,3.88,4.41.65,3.68-.51,6.91-1.52,10.45,3.8.02,5.58-3.57,7.84-5.96l1.46,3.37ZM96.04,72.23c-1.52,2.17-2.53,5.71-2.07,8.31.43,2.43,2.15,2.9,4.24,2.53,2.76-.49,4.24-2.39,5.86-4.49-.82-1.24-1.43-2.25-1.68-3.67-.77-4.35,2.24-10.32,1.87-10.43-2.55,2.18-6.13,4.88-8.21,7.75Z"/>
    <path d="M154.33,66.01c-2.93,5.44-6.26,8.09-12.37,9.17-2.88,4.22-6.51,7.62-11.79,8.55-4.35.77-9.14-2.88-10.82-10.44-1.27-6.25,1.08-10.98,5.14-15.41,3.87-4.48,9.5-7.8,14.56-8.96,1.83-.41,4.74-.06,5.14,2.2.22,1.26-.7,1.93-1.53,2.6,2.63.23,3.44,1.9,3.88,4.41.65,3.68-.51,6.91-1.52,10.45,3.8.02,5.58-3.57,7.84-5.96l1.46,3.37ZM128.1,66.58c-1.52,2.17-2.53,5.71-2.08,8.31.43,2.43,2.15,2.9,4.25,2.53,2.76-.49,4.24-2.39,5.85-4.49-.82-1.24-1.43-2.25-1.68-3.67-.77-4.35,2.24-10.32,1.87-10.43-2.55,2.18-6.13,4.88-8.21,7.75Z"/>
    <path d="M183.38,47.16c-2,4.84-5.05,10.99-4.11,16.35.24,1.34.82,4.17,2.66,3.85,2.85-.5,9.35-8.64,11.72-10.87l1.07,2.66c-3.17,5.05-10.24,15.36-16.35,16.43-3.18.56-5.03-2.57-5.5-5.25-.37-2.09-.42-4.33-.45-6.48-2.49,3.03-8.84,12.52-12.61,13.19s-7.53-6.96-8.04-9.89c-1.74-9.88,13.44-21.19,20.48-22.86,1.74-.39,2.62.66,3.93,1.72,1.92-5.26,6.23-23.89,12.34-24.96,1.67-.29,2.97,1.2,3.24,2.71.44,2.51-1.21,6.34-2.18,8.67l-6.21,14.73ZM159.44,67.61c.05.77.59,1.36,1.54,1.37,1.05.07,12.76-12.35,13.22-17.52-13.89,7.37-15.23,10.54-14.76,16.16Z"/>
    <path d="M211.48,83.21c-.67,1.07-2.44,4.75-3.78,4.98-1.76.31-3.23-3.66-3.49-5.08-.24-1.34.9-4.21,1.38-5.42l7.88-20.9-.2-.14c-5.85,6.99-11.16,12.58-12.18,12.68-2.37.25-7.01-2.56-8.36-8.71-2.11-9.99,10.34-23.14,12.67-23.64,1.25-.22,4.07,2.04,4.28,3.22.56,3.18-7.36,13.56-9.74,16.22-.75,1.6-.96,3.36-.74,5.14,4.35-1.28,7.73-5.59,10.67-9.48,7.22-9.47,11.56-16.19,13.11-16.73,1.38-.5,2.79,2.62,3,3.79.38,2.18-1.27,6.01-2.13,7.97l-9.14,20.6.2.14,15.68-19.77,1.22,2.98-20.31,32.15Z"/>
  </g>
  <g>
    <path d="M129.67,167.67c-1.85,0-3.27-.5-4.25-1.51-1.31-1.24-1.97-3.02-1.97-5.34s.66-4.15,1.97-5.34c.98-1.01,2.39-1.51,4.25-1.51s3.27.5,4.24,1.51c1.31,1.19,1.96,2.97,1.96,5.34s-.65,4.11-1.96,5.34c-.98,1.01-2.39,1.51-4.24,1.51ZM132.23,164.19c.63-.79.94-1.92.94-3.38s-.31-2.58-.94-3.37-1.48-1.19-2.55-1.19-1.93.4-2.57,1.19c-.64.79-.96,1.92-.96,3.37s.32,2.58.96,3.38c.64.79,1.49,1.19,2.57,1.19s1.92-.4,2.56-1.19Z"/>
    <path d="M140.02,167.31h-2.52v-12.95h3.94l2.35,10.19,2.34-10.19h3.89v12.95h-2.52v-8.76c0-.25,0-.6,0-1.06s0-.8,0-1.05l-2.45,10.87h-2.63l-2.43-10.87c0,.25,0,.6,0,1.05s0,.81,0,1.06v8.76Z"/>
    <path d="M161.16,161.65h-6.29v3.33h7.17v2.33h-9.82v-12.95h9.5v2.29h-6.85v2.75h6.29v2.25Z"/>
    <path d="M163.75,154.36h2.71v10.63h6.42v2.33h-9.12v-12.95Z"/>
    <path d="M183.37,161.65h-6.29v3.33h7.17v2.33h-9.82v-12.95h9.5v2.29h-6.85v2.75h6.29v2.25Z"/>
    <path d="M195.37,154.36v2.29h-3.88v10.66h-2.72v-10.66h-3.89v-2.29h10.49Z"/>
    <path d="M214.82,167.31v-5.78h-5.06v5.78h-2.68v-12.95h2.68v4.94h5.06v-4.94h2.69v12.95h-2.69Z"/>
    <path d="M225.43,167.67c-1.85,0-3.27-.5-4.25-1.51-1.31-1.24-1.97-3.02-1.97-5.34s.66-4.15,1.97-5.34c.98-1.01,2.39-1.51,4.25-1.51s3.27.5,4.24,1.51c1.31,1.19,1.96,2.97,1.96,5.34s-.65,4.11-1.96,5.34c-.98,1.01-2.39,1.51-4.24,1.51ZM227.99,164.19c.63-.79.94-1.92.94-3.38s-.31-2.58-.94-3.37-1.48-1.19-2.55-1.19-1.93.4-2.57,1.19c-.64.79-.96,1.92-.96,3.37s.32,2.58.96,3.38c.64.79,1.49,1.19,2.57,1.19s1.92-.4,2.56-1.19Z"/>
    <path d="M240.97,162.32v-7.96h2.75v7.96c0,1.38-.21,2.45-.64,3.22-.8,1.41-2.32,2.11-4.56,2.11s-3.77-.7-4.57-2.11c-.43-.77-.64-1.84-.64-3.22v-7.96h2.75v7.96c0,.89.11,1.54.32,1.95.33.73,1.04,1.09,2.14,1.09s1.81-.36,2.14-1.09c.21-.41.32-1.06.32-1.95Z"/>
    <path d="M250.61,165.44c.64,0,1.16-.07,1.56-.21.76-.27,1.13-.77,1.13-1.5,0-.43-.19-.76-.56-.99-.38-.23-.96-.43-1.77-.61l-1.37-.31c-1.35-.3-2.28-.64-2.79-.99-.87-.6-1.31-1.53-1.31-2.8,0-1.16.42-2.12,1.27-2.89s2.08-1.15,3.72-1.15c1.37,0,2.53.36,3.49,1.09s1.47,1.77,1.52,3.15h-2.6c-.05-.78-.39-1.33-1.02-1.66-.42-.22-.95-.33-1.57-.33-.7,0-1.25.14-1.67.42s-.62.67-.62,1.18c0,.46.21.81.62,1.04.26.15.83.33,1.69.54l2.23.54c.98.23,1.72.55,2.21.94.77.61,1.16,1.49,1.16,2.65s-.45,2.17-1.36,2.95-2.18,1.17-3.84,1.17-3.01-.39-3.98-1.16-1.45-1.83-1.45-3.18h2.58c.08.59.24,1.03.48,1.33.44.53,1.19.8,2.26.8Z"/>
    <path d="M266.53,161.65h-6.29v3.33h7.17v2.33h-9.82v-12.95h9.5v2.29h-6.86v2.75h6.29v2.25Z"/>
  </g>
  <g>
    <path d="M114.38,135.76c-3.64,3.84-10.11,11.19-14.99,11.45-6.75.41-10.41-4.21-11.44-10.07-1.27-7.2,2.61-17.03,6.58-22.91,4.65-7.38,17.73-21.86,40.37-28.53,1.56-.45,2.54-.28,3.68.82,1.14,1.09,2.17,3.5,2.45,5.09.38,2.18-1.15,3.74-2.63,5.13-10.22,9.57-11.88,9.95-12.64,10.08-.67.12-1.18-.31-1.29-.98-.15-.84,1.32-2.3,1.83-2.83l3.01-3.47-.2-.14c-23.73,11.78-35.03,34.83-33.37,38.86.73,1.68,1.65,2.99,3.49,2.67,1.76-.31,4-2.26,5.24-3.6l26.54-28.68c.41-.59.98-1.29,1.73-1.43.75-.13,2.6.58,3.35.88,1.01.34,2.3.8,2.49,1.89.15.84-.44,2.41-.66,3.14-2.32,7.92-6.31,16.13-10.97,27.4l.2.14,16.32-15.13c.48,3.71,1.19,4.28-8.84,13.99l-11.87,11.5c-2.61,5.29-12.83,21.25-18.52,22.25-2.09.37-3.31-1.14-3.72-2.97-1.24-5.56,4.9-14.33,12.39-19.79,3.96-7.43,7.62-15.07,9.75-23.04l-.2-.14-8.1,8.42Z"/>
    <path d="M176.73,124.69c-2.93,5.44-6.26,8.09-12.37,9.17-2.88,4.22-6.51,7.62-11.79,8.55-4.35.77-9.14-2.88-10.82-10.44-1.27-6.25,1.08-10.98,5.14-15.41,3.87-4.48,9.5-7.8,14.56-8.96,1.83-.41,4.74-.06,5.14,2.2.22,1.26-.69,1.93-1.53,2.6,2.63.23,3.44,1.9,3.88,4.41.65,3.68-.51,6.91-1.52,10.45,3.8.02,5.58-3.57,7.84-5.96l1.46,3.37ZM150.5,125.25c-1.52,2.17-2.53,5.71-2.07,8.31.43,2.43,2.15,2.9,4.24,2.53,2.76-.49,4.24-2.39,5.86-4.49-.82-1.24-1.43-2.25-1.68-3.67-.77-4.35,2.24-10.32,1.87-10.43-2.55,2.18-6.13,4.88-8.21,7.75Z"/>
    <path d="M208.79,119.03c-2.93,5.44-6.25,8.09-12.37,9.17-2.88,4.22-6.51,7.62-11.79,8.55-4.35.77-9.14-2.88-10.82-10.44-1.28-6.25,1.08-10.98,5.14-15.41,3.87-4.48,9.5-7.8,14.56-8.96,1.83-.41,4.74-.06,5.14,2.2.22,1.26-.69,1.94-1.53,2.6,2.63.23,3.44,1.9,3.88,4.41.65,3.68-.51,6.91-1.52,10.45,3.8.02,5.58-3.57,7.84-5.96l1.46,3.37ZM182.57,119.6c-1.52,2.17-2.53,5.71-2.07,8.31.43,2.43,2.15,2.9,4.24,2.53,2.76-.49,4.24-2.39,5.86-4.49-.82-1.24-1.43-2.25-1.68-3.67-.77-4.35,2.24-10.32,1.87-10.43-2.55,2.18-6.13,4.88-8.21,7.75Z"/>
    <path d="M237.84,100.19c-1.99,4.84-5.05,10.99-4.11,16.35.24,1.34.82,4.17,2.66,3.85,2.85-.5,9.35-8.64,11.72-10.87l1.07,2.66c-3.17,5.05-10.24,15.36-16.35,16.44-3.18.56-5.03-2.57-5.5-5.25-.37-2.09-.42-4.33-.45-6.48-2.49,3.03-8.84,12.52-12.61,13.19-3.77.66-7.53-6.96-8.04-9.89-1.74-9.88,13.44-21.19,20.48-22.86,1.74-.39,2.62.66,3.93,1.72,1.92-5.26,6.23-23.89,12.34-24.96,1.67-.29,2.97,1.2,3.24,2.71.44,2.51-1.21,6.34-2.18,8.67l-6.21,14.73ZM213.91,120.63c.05.77.58,1.36,1.54,1.37,1.05.07,12.76-12.35,13.22-17.52-13.89,7.37-15.23,10.54-14.76,16.15Z"/>
    <path d="M265.94,136.23c-.68,1.07-2.45,4.75-3.78,4.98-1.76.31-3.23-3.66-3.49-5.08-.24-1.34.9-4.22,1.38-5.42l7.88-20.9-.2-.14c-5.85,6.99-11.16,12.58-12.18,12.68-2.37.25-7.01-2.56-8.35-8.71-2.11-9.99,10.33-23.14,12.66-23.64,1.26-.22,4.07,2.04,4.28,3.22.56,3.18-7.37,13.56-9.74,16.22-.75,1.6-.96,3.36-.73,5.14,4.35-1.29,7.73-5.59,10.67-9.48,7.22-9.47,11.56-16.19,13.11-16.73,1.38-.5,2.79,2.62,3,3.79.38,2.18-1.27,6.01-2.13,7.97l-9.14,20.6.2.14,15.68-19.77,1.22,2.98-20.31,32.15Z"/>
  </g>
</svg>