<svg width="1920" height="814" viewBox="0 0 1920 814" fill="none" xmlns="http://www.w3.org/2000/svg">
<path d="M960 2C1235.68 2 1587.28 54.2443 1870.04 106.515C2011.4 132.647 2135.53 158.779 2224.31 178.378C2268.71 188.177 2304.26 196.344 2328.72 202.06C2340.95 204.917 2350.4 207.163 2356.79 208.693C2359.99 209.459 2362.43 210.045 2364.06 210.44C2364.41 210.525 2364.72 210.601 2365 210.668V630.754C2364.74 630.809 2364.44 630.872 2364.12 630.94C2362.48 631.284 2360.04 631.793 2356.84 632.458C2350.44 633.788 2340.97 635.738 2328.73 638.221C2304.24 643.186 2268.64 650.279 2224.21 658.791C2135.33 675.815 2011.09 698.515 1869.66 721.214C1586.75 766.617 1235.13 812 960 812C684.871 812 333.252 766.617 50.3438 721.214C-91.0947 698.515 -215.331 675.815 -304.207 658.791C-348.645 650.279 -384.242 643.186 -408.729 638.221C-420.971 635.738 -430.437 633.788 -436.841 632.458C-440.043 631.793 -442.479 631.284 -444.115 630.94C-444.442 630.872 -444.737 630.809 -445 630.754V210.668C-444.724 210.601 -444.41 210.525 -444.06 210.44C-442.426 210.045 -439.993 209.459 -436.795 208.693C-430.399 207.163 -420.946 204.917 -408.718 202.06C-384.261 196.344 -348.706 188.177 -304.314 178.378C-215.53 158.779 -91.4043 132.647 49.959 106.515C332.721 54.2443 684.32 2 960 2Z" fill="#E65222" stroke="black" stroke-width="4"/>
</svg>
