<svg width="24" height="24" viewBox="0 0 24 24" fill="none" xmlns="http://www.w3.org/2000/svg">
<g clip-path="url(#clip0_57_319)">
<path d="M12 3.13086C7.10938 3.13086 3.13049 7.10975 3.13049 12.0004C3.13049 16.8911 7.10938 20.87 12 20.87C16.8907 20.87 20.8696 16.8911 20.8696 12.0004C20.8696 7.10975 16.8907 3.13086 12 3.13086ZM12 4.95692C12.4322 4.95692 12.7827 5.30731 12.7827 5.73955C12.7827 6.17173 12.4323 6.52217 12 6.52217C11.5679 6.52217 11.2174 6.17178 11.2174 5.73955C11.2174 5.30731 11.5679 4.95692 12 4.95692ZM5.73918 12.783C5.30699 12.783 4.95656 12.4326 4.95656 12.0004C4.95656 11.5682 5.30695 11.2178 5.73918 11.2178C6.17137 11.2178 6.52181 11.5682 6.52181 12.0004C6.52176 12.4326 6.17137 12.783 5.73918 12.783ZM12 19.0439C11.5679 19.0439 11.2174 18.6935 11.2174 18.2613C11.2174 17.8291 11.5678 17.4786 12 17.4786C12.4322 17.4786 12.7827 17.829 12.7827 18.2613C12.7827 18.6935 12.4322 19.0439 12 19.0439ZM15.8782 9.25948L12.5684 12.569C12.4155 12.7219 12.2153 12.7984 12.0151 12.7984C11.8149 12.7984 11.6146 12.7219 11.4618 12.569L9.23751 10.3448C8.93184 10.0393 8.93184 9.54359 9.23751 9.23811C9.54318 8.93244 10.0385 8.93244 10.3442 9.23811L12.0151 10.909L14.7715 8.15281C15.0772 7.84714 15.5725 7.84714 15.8782 8.15281C16.1839 8.45853 16.1839 8.954 15.8782 9.25948ZM18.2609 12.783C17.8287 12.783 17.4783 12.4326 17.4783 12.0004C17.4783 11.5682 17.8287 11.2178 18.2609 11.2178C18.6931 11.2178 19.0435 11.5682 19.0435 12.0004C19.0435 12.4326 18.6931 12.783 18.2609 12.783Z" fill="#E65222"/>
<path d="M12 0C5.38322 0 0 5.38322 0 12C0 18.6168 5.38322 24 12 24C18.6168 24 24 18.6168 24 12C24 5.38322 18.6168 0 12 0ZM12 22.4348C6.24628 22.4348 1.5652 17.7538 1.5652 12C1.5652 6.24623 6.24628 1.5652 12 1.5652C17.7537 1.5652 22.4348 6.24628 22.4348 12C22.4348 17.7537 17.7537 22.4348 12 22.4348Z" fill="#E65222"/>
</g>
<defs>
<clipPath id="clip0_57_319">
<rect width="24" height="24" fill="white"/>
</clipPath>
</defs>
</svg>
