<svg width="341" height="220" viewBox="0 0 341 220" fill="none" xmlns="http://www.w3.org/2000/svg">
<g clip-path="url(#clip0_57_429)">
<path d="M170.5 220C76.487 220 0 170.655 0 109.995C0 49.3347 76.487 0 170.5 0C264.513 0 341 49.3455 341 109.995C341 170.644 264.513 219.989 170.5 219.989V220ZM170.5 4.31436C78.8671 4.31436 4.32741 51.7292 4.32741 109.995C4.32741 168.26 78.8671 215.675 170.5 215.675C262.133 215.675 336.673 168.26 336.673 109.995C336.673 51.7292 262.122 4.31436 170.5 4.31436Z" fill="#E65222"/>
<path d="M64.8246 89.2423C60.8867 93.3841 53.8871 101.312 48.6077 101.592C41.3051 102.034 37.3456 97.0513 36.2313 90.7308C34.8573 82.9649 39.0549 72.3624 43.3498 66.0203C48.3913 58.0603 62.5311 42.4423 87.0351 35.2481C88.7227 34.7628 89.783 34.9461 91.0163 36.1326C92.2496 37.3082 93.3639 39.9076 93.6668 41.6226C94.0779 43.9739 92.4227 45.6565 90.8107 47.1558C79.7542 57.4779 77.9583 57.8877 77.1361 58.0279C76.4113 58.1574 75.8595 57.6936 75.7405 56.9709C75.5782 56.0649 77.1686 54.4902 77.7203 53.9185L80.9767 50.1758L80.7603 50.0248C55.088 62.7306 42.863 87.5921 44.6589 91.9388C45.4486 93.7508 46.4439 95.1638 48.4346 94.8079C50.3386 94.4735 52.762 92.3703 54.1035 90.9249L82.8158 60.0018C83.2594 59.3654 83.876 58.6104 84.6874 58.4594C85.4988 58.3192 87.5111 59.085 88.3116 59.4085C89.4043 59.7753 90.7999 60.2714 91.0055 61.4471C91.1677 62.3531 90.5294 64.0465 90.2914 64.8338C87.7815 73.3763 83.4758 82.2315 78.4343 94.3872L78.6507 94.5382L96.3065 78.2084C96.8258 82.2099 97.5939 82.8247 86.743 93.2978L73.9014 105.702C71.0777 111.407 60.0212 128.622 53.8655 129.7C51.6044 130.099 50.2845 128.471 49.841 126.497C48.4995 120.5 55.142 111.041 63.2451 105.152C67.5293 97.1376 71.4888 88.8972 73.7932 80.3008L73.5768 80.1498L64.8138 89.2316L64.8246 89.2423Z" fill="white"/>
<path d="M132.278 77.2923C129.108 83.1598 125.517 86.0181 118.896 87.1829C115.78 91.7346 111.853 95.4018 106.141 96.4049C101.435 97.2354 96.2525 93.2985 94.4349 85.1444C93.0502 78.4032 95.6033 73.3015 99.9957 68.5233C104.182 63.6913 110.273 60.1103 115.747 58.8592C117.727 58.4169 120.875 58.7945 121.308 61.2321C121.546 62.5911 120.562 63.3245 119.653 64.0364C122.498 64.2845 123.375 66.0857 123.851 68.793C124.554 72.7622 123.299 76.246 122.206 80.0643C126.317 80.0858 128.243 76.2137 130.688 73.6358L132.267 77.2707L132.278 77.2923ZM103.901 77.9071C102.257 80.2476 101.164 84.0658 101.662 86.8702C102.127 89.4911 103.988 89.9981 106.249 89.599C109.235 89.0705 110.836 87.0212 112.588 84.7561C111.701 83.4187 111.041 82.3293 110.771 80.7977C109.938 76.1058 113.194 69.6666 112.794 69.548C110.035 71.8993 106.162 74.8115 103.912 77.9071H103.901Z" fill="white"/>
<path d="M166.962 71.1976C163.793 77.0651 160.19 79.9233 153.58 81.0882C150.464 85.6399 146.537 89.3071 140.825 90.3102C136.119 91.1407 130.937 87.2038 129.119 79.0497C127.745 72.3085 130.288 67.2068 134.68 62.4286C138.867 57.5965 144.957 54.0156 150.432 52.7644C152.411 52.3222 155.56 52.6997 155.992 55.1373C156.23 56.4964 155.235 57.219 154.337 57.9417C157.182 58.1898 158.059 59.991 158.535 62.6983C159.238 66.6675 157.983 70.1513 156.89 73.9695C161.001 73.9911 162.927 70.119 165.372 67.5411L166.952 71.176L166.962 71.1976ZM138.585 71.8123C136.941 74.1529 135.848 77.9711 136.335 80.7754C136.8 83.3964 138.661 83.9033 140.933 83.5043C143.919 82.9757 145.52 80.9264 147.262 78.6614C146.375 77.3239 145.715 76.2346 145.444 74.703C144.611 70.0111 147.868 63.5719 147.467 63.4533C144.709 65.8046 140.836 68.7168 138.585 71.8123Z" fill="white"/>
<path d="M198.39 50.8663C196.226 56.0867 192.927 62.72 193.944 68.5013C194.203 69.9466 194.831 72.999 196.821 72.6539C199.905 72.1146 206.937 63.3348 209.501 60.9296L210.658 63.7986C207.229 69.2455 199.58 80.3658 192.97 81.5199C189.53 82.1239 187.528 78.7479 187.02 75.8573C186.62 73.603 186.566 71.187 186.533 68.868C183.839 72.1361 176.969 82.3719 172.891 83.0946C168.812 83.8173 164.745 75.5876 164.193 72.4273C162.31 61.7709 178.733 49.572 186.349 47.7708C188.232 47.3501 189.184 48.4827 190.601 49.626C192.678 43.9526 197.341 23.8584 203.951 22.7044C205.758 22.3916 207.164 23.9987 207.456 25.6273C207.932 28.3346 206.147 32.4656 205.098 34.9787L198.379 50.8663H198.39ZM172.491 72.9235C172.545 73.754 173.129 74.3904 174.157 74.4012C175.293 74.4767 187.961 61.0806 188.459 55.5043C173.432 63.4535 171.982 66.8726 172.491 72.9343V72.9235Z" fill="white"/>
<path d="M228.79 89.7496C228.065 90.9037 226.151 94.873 224.701 95.121C222.797 95.4554 221.206 91.1734 220.925 89.6418C220.666 88.1965 221.899 85.1009 222.418 83.7958L230.943 61.2533L230.727 61.1023C224.398 68.6416 218.653 74.671 217.55 74.7788C214.986 75.0485 209.966 72.0176 208.505 65.3843C206.223 54.6092 219.692 40.4257 222.213 39.8864C223.565 39.6491 226.616 42.0868 226.843 43.3595C227.449 46.7894 218.88 57.9852 216.306 60.8542C215.494 62.58 215.267 64.4783 215.505 66.3982C220.211 65.0176 223.868 60.3689 227.048 56.1731C234.859 45.9589 239.555 38.7108 241.232 38.1283C242.724 37.589 244.25 40.9542 244.477 42.2162C244.888 44.5675 243.103 48.6985 242.173 50.8126L232.285 73.0315L232.501 73.1825L249.464 51.8588L250.784 55.073L228.812 89.7496H228.79Z" fill="white"/>
<path d="M140.284 180.847C138.282 180.847 136.746 180.308 135.686 179.218C134.269 177.881 133.555 175.961 133.555 173.459C133.555 170.956 134.269 168.982 135.686 167.699C136.746 166.61 138.272 166.07 140.284 166.07C142.296 166.07 143.821 166.61 144.871 167.699C146.288 168.982 146.991 170.902 146.991 173.459C146.991 176.015 146.288 177.892 144.871 179.218C143.811 180.308 142.285 180.847 140.284 180.847ZM143.053 177.094C143.735 176.241 144.07 175.023 144.07 173.448C144.07 171.873 143.735 170.665 143.053 169.813C142.372 168.961 141.452 168.529 140.295 168.529C139.137 168.529 138.207 168.961 137.514 169.813C136.822 170.665 136.476 171.884 136.476 173.448C136.476 175.012 136.822 176.231 137.514 177.094C138.207 177.946 139.126 178.377 140.295 178.377C141.463 178.377 142.372 177.946 143.064 177.094H143.053Z" fill="white"/>
<path d="M151.481 180.459H148.755V166.491H153.017L155.56 177.482L158.091 166.491H162.299V180.459H159.573V171.011C159.573 170.741 159.573 170.363 159.573 169.867C159.573 169.371 159.573 169.004 159.573 168.735L156.923 180.459H154.077L151.449 168.735C151.449 169.004 151.449 169.382 151.449 169.867C151.449 170.353 151.449 170.741 151.449 171.011V180.459H151.481Z" fill="white"/>
<path d="M174.351 174.354H167.546V177.946H175.303V180.459H164.68V166.491H174.957V168.961H167.546V171.927H174.351V174.354Z" fill="white"/>
<path d="M177.153 166.491H180.085V177.957H187.031V180.47H177.164V166.502L177.153 166.491Z" fill="white"/>
<path d="M198.379 174.354H191.574V177.946H199.331V180.459H188.708V166.491H198.985V168.961H191.574V171.927H198.379V174.354Z" fill="white"/>
<path d="M211.362 166.491V168.961H207.164V180.459H204.221V168.961H200.013V166.491H211.362Z" fill="white"/>
<path d="M232.404 180.459V174.225H226.929V180.459H224.03V166.491H226.929V171.819H232.404V166.491H235.314V180.459H232.404Z" fill="white"/>
<path d="M243.882 180.847C241.881 180.847 240.344 180.308 239.284 179.218C237.867 177.881 237.153 175.961 237.153 173.459C237.153 170.956 237.867 168.982 239.284 167.699C240.344 166.61 241.87 166.07 243.882 166.07C245.894 166.07 247.42 166.61 248.469 167.699C249.886 168.982 250.59 170.902 250.59 173.459C250.59 176.015 249.886 177.892 248.469 179.218C247.409 180.308 245.883 180.847 243.882 180.847ZM246.652 177.094C247.333 176.241 247.669 175.023 247.669 173.448C247.669 171.873 247.333 170.665 246.652 169.813C245.97 168.961 245.05 168.529 243.893 168.529C242.735 168.529 241.805 168.961 241.113 169.813C240.42 170.665 240.074 171.884 240.074 173.448C240.074 175.012 240.42 176.231 241.113 177.094C241.805 177.946 242.724 178.377 243.893 178.377C245.061 178.377 245.97 177.946 246.662 177.094H246.652Z" fill="white"/>
<path d="M260.694 175.077V166.491H263.669V175.077C263.669 176.565 263.442 177.719 262.977 178.55C262.111 180.071 260.467 180.826 258.043 180.826C255.62 180.826 253.965 180.071 253.099 178.55C252.634 177.719 252.407 176.565 252.407 175.077V166.491H255.382V175.077C255.382 176.037 255.501 176.738 255.728 177.18C256.085 177.967 256.853 178.356 258.043 178.356C259.233 178.356 260.002 177.967 260.359 177.18C260.586 176.738 260.705 176.037 260.705 175.077H260.694Z" fill="white"/>
<path d="M271.123 178.442C271.815 178.442 272.378 178.366 272.811 178.215C273.633 177.924 274.033 177.385 274.033 176.597C274.033 176.133 273.828 175.778 273.427 175.529C273.016 175.281 272.389 175.066 271.513 174.872L270.03 174.537C268.57 174.214 267.564 173.847 267.012 173.469C266.071 172.822 265.595 171.819 265.595 170.449C265.595 169.198 266.049 168.163 266.969 167.332C267.888 166.502 269.219 166.092 270.993 166.092C272.475 166.092 273.73 166.48 274.769 167.267C275.807 168.055 276.359 169.177 276.413 170.665H273.6C273.546 169.824 273.179 169.23 272.497 168.875C272.043 168.637 271.469 168.519 270.798 168.519C270.041 168.519 269.446 168.67 268.992 168.972C268.537 169.274 268.321 169.694 268.321 170.244C268.321 170.741 268.548 171.118 268.992 171.366C269.273 171.528 269.89 171.722 270.82 171.949L273.233 172.531C274.293 172.779 275.093 173.124 275.624 173.545C276.457 174.203 276.879 175.152 276.879 176.403C276.879 177.654 276.392 178.744 275.407 179.585C274.423 180.426 273.049 180.847 271.253 180.847C269.457 180.847 267.996 180.426 266.947 179.596C265.898 178.765 265.378 177.622 265.378 176.166H268.17C268.256 176.802 268.429 177.277 268.689 177.6C269.165 178.172 269.976 178.463 271.134 178.463L271.123 178.442Z" fill="white"/>
<path d="M288.346 174.354H281.541V177.946H289.298V180.459H278.674V166.491H288.952V168.961H281.531V171.927H288.335V174.354H288.346Z" fill="white"/>
<path d="M123.742 146.429C119.804 150.571 112.805 158.498 107.525 158.779C100.223 159.221 96.2632 154.238 95.1489 147.917C93.775 140.151 97.9726 129.549 102.268 123.207C107.298 115.247 121.449 99.6288 145.942 92.4346C147.63 91.9493 148.69 92.1326 149.923 93.3191C151.156 94.4948 152.271 97.0942 152.574 98.8091C152.985 101.16 151.33 102.843 149.728 104.342C138.672 114.664 136.876 115.074 136.054 115.214C135.329 115.344 134.777 114.88 134.658 114.157C134.496 113.251 136.086 111.677 136.638 111.105L139.894 107.362L139.678 107.211C114.006 119.917 101.781 144.779 103.577 149.125C104.366 150.937 105.362 152.35 107.352 152.005C109.256 151.671 111.68 149.568 113.021 148.122L141.734 117.188C142.177 116.552 142.794 115.797 143.605 115.646C144.417 115.506 146.418 116.271 147.229 116.595C148.322 116.962 149.718 117.458 149.923 118.634C150.085 119.54 149.447 121.233 149.209 122.02C146.699 130.563 142.383 139.418 137.341 151.574L137.558 151.725L155.213 135.406C155.733 139.407 156.501 140.022 145.65 150.495L132.808 162.899C129.985 168.605 118.928 185.819 112.772 186.898C110.511 187.297 109.191 185.668 108.748 183.694C107.406 177.697 114.049 168.238 122.152 162.349C126.436 154.335 130.396 146.095 132.7 137.498L132.484 137.347L123.721 146.429H123.742Z" fill="white"/>
<path d="M191.196 134.489C188.026 140.356 184.423 143.214 177.813 144.379C174.698 148.931 170.77 152.598 165.058 153.601C160.352 154.432 155.17 150.495 153.353 142.341C151.979 135.6 154.521 130.498 158.913 125.72C163.1 120.888 169.191 117.307 174.665 116.055C176.645 115.613 179.793 115.991 180.226 118.428C180.464 119.787 179.479 120.51 178.571 121.233C181.416 121.481 182.292 123.282 182.768 125.989C183.471 129.958 182.216 133.442 181.124 137.261C185.235 137.282 187.16 133.41 189.605 130.832L191.185 134.467L191.196 134.489ZM162.819 135.093C161.174 137.433 160.082 141.251 160.579 144.056C161.045 146.677 162.905 147.184 165.166 146.784C168.152 146.256 169.753 144.207 171.506 141.942C170.619 140.604 169.959 139.515 169.689 137.983C168.856 133.291 172.112 126.852 171.712 126.734C168.953 129.085 165.08 131.997 162.83 135.093H162.819Z" fill="white"/>
<path d="M225.88 128.384C222.71 134.252 219.118 137.11 212.498 138.275C209.382 142.826 205.455 146.494 199.742 147.497C195.036 148.327 189.854 144.39 188.037 136.236C186.652 129.495 189.205 124.393 193.598 119.615C197.784 114.783 203.875 111.202 209.349 109.951C211.329 109.509 214.477 109.886 214.91 112.324C215.148 113.683 214.164 114.416 213.255 115.128C216.1 115.376 216.976 117.178 217.452 119.885C218.156 123.854 216.901 127.338 215.808 131.156C219.919 131.178 221.845 127.305 224.29 124.728L225.869 128.362L225.88 128.384ZM197.514 128.999C195.869 131.339 194.777 135.158 195.274 137.962C195.74 140.583 197.6 141.09 199.861 140.691C202.847 140.162 204.449 138.113 206.201 135.848C205.314 134.51 204.654 133.421 204.384 131.889C203.551 127.198 206.807 120.758 206.407 120.64C203.648 122.991 199.775 125.903 197.525 128.999H197.514Z" fill="white"/>
<path d="M257.308 108.064C255.155 113.284 251.844 119.917 252.861 125.699C253.121 127.144 253.749 130.196 255.739 129.851C258.822 129.312 265.854 120.532 268.418 118.127L269.576 120.996C266.147 126.443 258.498 137.563 251.888 138.728C248.447 139.332 246.446 135.956 245.938 133.065C245.537 130.811 245.483 128.395 245.451 126.076C242.757 129.344 235.887 139.58 231.809 140.303C227.73 141.014 223.662 132.796 223.11 129.635C221.228 118.979 237.651 106.78 245.267 104.979C247.149 104.558 248.101 105.691 249.518 106.834C251.596 101.161 256.258 81.0665 262.869 79.9124C264.675 79.5996 266.082 81.2067 266.374 82.8353C266.85 85.5426 265.065 89.6736 264.015 92.1867L257.297 108.074L257.308 108.064ZM231.419 130.11C231.473 130.94 232.047 131.577 233.085 131.588C234.221 131.663 246.89 118.267 247.387 112.691C232.36 120.64 230.911 124.059 231.419 130.11Z" fill="white"/>
<path d="M287.708 146.936C286.972 148.09 285.057 152.059 283.618 152.308C281.714 152.642 280.124 148.36 279.843 146.828C279.583 145.383 280.816 142.277 281.336 140.982L289.861 118.44L289.644 118.289C283.316 125.828 277.571 131.857 276.467 131.965C273.903 132.235 268.884 129.204 267.434 122.571C265.151 111.796 278.609 97.6123 281.13 97.073C282.493 96.8357 285.533 99.2733 285.761 100.546C286.366 103.976 277.787 115.172 275.223 118.041C274.412 119.766 274.185 121.665 274.434 123.585C279.14 122.193 282.796 117.555 285.977 113.36C293.788 103.145 298.483 95.8973 300.16 95.3149C301.653 94.7756 303.178 98.1408 303.406 99.4027C303.817 101.754 302.032 105.885 301.101 107.999L291.213 130.218L291.429 130.369L308.393 109.045L309.713 112.26L287.74 146.936H287.708Z" fill="white"/>
</g>
<defs>
<clipPath id="clip0_57_429">
<rect width="341" height="220" fill="white"/>
</clipPath>
</defs>
</svg>
