<svg width="1920" height="1480" viewBox="0 0 1920 1480" fill="none" xmlns="http://www.w3.org/2000/svg">
<path d="M960 2C1544.32 2 2289.44 97.0216 2888.55 192.062C3188.09 239.581 3451.11 287.099 3639.23 322.737C3733.3 340.557 3808.64 355.407 3860.46 365.801C3886.37 370.998 3906.41 375.08 3919.96 377.864C3926.74 379.256 3931.9 380.324 3935.36 381.043C3936.92 381.367 3938.13 381.619 3939 381.8V1148.1C3938.14 1148.26 3936.94 1148.48 3935.41 1148.75C3931.94 1149.38 3926.77 1150.31 3919.99 1151.51C3906.42 1153.93 3886.36 1157.48 3860.41 1161.99C3808.53 1171.02 3733.1 1183.92 3638.94 1199.4C3450.62 1230.36 3187.37 1271.63 2887.68 1312.91C2288.26 1395.46 1543.13 1478 960 1478C376.874 1478 -368.263 1395.46 -967.68 1312.91C-1267.37 1271.63 -1530.62 1230.36 -1718.94 1199.4C-1813.1 1183.92 -1888.53 1171.02 -1940.41 1161.99C-1966.36 1157.48 -1986.42 1153.93 -1999.99 1151.51C-2006.77 1150.31 -2011.94 1149.38 -2015.41 1148.75C-2016.94 1148.48 -2018.14 1148.26 -2019 1148.1V381.8C-2018.13 381.619 -2016.92 381.367 -2015.36 381.043C-2011.9 380.324 -2006.74 379.256 -1999.96 377.864C-1986.41 375.08 -1966.37 370.998 -1940.46 365.801C-1888.64 355.407 -1813.3 340.557 -1719.23 322.737C-1531.11 287.099 -1268.09 239.581 -968.554 192.062C-369.444 97.0216 375.677 2 960 2Z" fill="#E65222" stroke="black" stroke-width="4"/>
</svg>
