<svg width="24" height="24" viewBox="0 0 24 24" fill="none" xmlns="http://www.w3.org/2000/svg">
<path d="M17.25 1.5H6.75C3.85501 1.5 1.5 3.85501 1.5 6.75V17.25C1.5 20.145 3.85501 22.5 6.75 22.5H17.25C20.145 22.5 22.5 20.145 22.5 17.25V6.75C22.5 3.85501 20.145 1.5 17.25 1.5ZM15.5775 16.8075H8.42249C8.00999 16.8075 7.67249 16.47 7.67249 16.0575C7.67249 15.645 8.00999 15.3075 8.42249 15.3075H15.5775C15.99 15.3075 16.3275 15.645 16.3275 16.0575C16.3275 16.47 15.99 16.8075 15.5775 16.8075ZM15.5775 12.75H8.42249C8.00999 12.75 7.67249 12.4125 7.67249 12C7.67249 11.5875 8.00999 11.25 8.42249 11.25H15.5775C15.99 11.25 16.3275 11.5875 16.3275 12C16.3275 12.4125 15.99 12.75 15.5775 12.75ZM15.5775 8.69247H8.42249C8.00999 8.69247 7.67249 8.35501 7.67249 7.94247C7.67249 7.52998 8.00999 7.19247 8.42249 7.19247H15.5775C15.99 7.19247 16.3275 7.52998 16.3275 7.94247C16.3275 8.35501 15.99 8.69247 15.5775 8.69247Z" fill="white"/>
</svg>
