<svg width="24" height="24" viewBox="0 0 24 24" fill="none" xmlns="http://www.w3.org/2000/svg">
<path d="M17.9561 15.3347L17.5047 14.6565L17.1015 14.7614C14.9571 15.3172 12.7008 15.6002 10.3949 15.6002C8.09762 15.6002 5.84498 15.3172 3.6989 14.7611L3.29546 14.6562L2.84402 15.3345C2.5997 15.7003 2.40002 16.3595 2.40002 16.8002V21.6002H4.0001L4.80002 20.0001H16.0001L16.8 21.6002H18.4001V16.8002C18.4001 16.3595 18.1999 15.7002 17.9561 15.3347ZM6.4001 18.4002H4.40018V17.2002H6.4001V18.4002ZM12.7999 18.4002H7.99994V17.2002H12.7999V18.4002ZM16.3999 18.4002H14.4V17.2002H16.3999V18.4002Z" fill="#E65222"/>
<path d="M10.6128 8.80766C8.8805 8.79038 7.17458 8.99198 5.59994 9.39974L4.60946 11.9999H2.40002V13.1999L4.0001 13.6C8.26682 14.7061 12.8439 14.6265 16.8 13.6C13.8274 13.6 11.329 11.5593 10.6128 8.80766Z" fill="#E65222"/>
<path d="M16.8 2.40039C14.1485 2.40039 12 4.54887 12 7.20039C12 9.85191 14.1485 12.0004 16.8 12.0004C19.4515 12.0004 21.6 9.85191 21.6 7.20039C21.6 4.54887 19.4515 2.40039 16.8 2.40039ZM16.3999 9.22455L13.9999 6.82455L14.8483 5.97615L16.3999 7.52775L18.7517 5.17623L19.6001 6.02463L16.3999 9.22455Z" fill="#E65222"/>
</svg>
