<svg width="1920" height="716" viewBox="0 0 1920 716" fill="none" xmlns="http://www.w3.org/2000/svg">
<path d="M960 2C1353.6 2 1713.98 47.9646 1975.97 93.9316C2106.96 116.915 2213.34 139.897 2286.97 157.132C2323.79 165.749 2352.42 172.931 2371.84 177.956C2381.55 180.469 2388.96 182.443 2393.94 183.788C2396.43 184.461 2398.31 184.976 2399.57 185.323C2399.72 185.366 2399.87 185.405 2400 185.442V554.65C2399.86 554.682 2399.72 554.716 2399.57 554.751C2398.25 555.053 2396.28 555.501 2393.68 556.085C2388.49 557.254 2380.76 558.969 2370.67 561.152C2350.47 565.518 2320.76 571.756 2282.75 579.242C2206.73 594.214 2097.48 614.179 1964.58 634.144C1698.76 674.074 1338.37 714 960 714C581.631 714 221.236 674.074 -44.5781 634.144C-177.481 614.179 -286.732 594.214 -362.754 579.242C-400.764 571.756 -430.467 565.518 -450.665 561.152C-460.764 558.969 -468.487 557.254 -473.684 556.085C-476.282 555.501 -478.249 555.053 -479.565 554.751C-479.719 554.716 -479.864 554.682 -480 554.65V185.442C-479.865 185.405 -479.721 185.366 -479.567 185.323C-478.308 184.976 -476.425 184.461 -473.936 183.788C-468.956 182.443 -461.548 180.469 -451.838 177.956C-432.417 172.931 -403.79 165.749 -366.974 157.132C-293.341 139.897 -186.956 116.915 -55.9668 93.9316C206.018 47.9646 566.398 2 960 2Z" fill="#E65222" stroke="black" stroke-width="4"/>
</svg>
