<svg width="1920" height="1218" viewBox="0 0 1920 1218" fill="none" xmlns="http://www.w3.org/2000/svg">
<path d="M960 2C1440.8 2 2053.92 80.1965 2546.91 158.412C2793.39 197.517 3009.81 236.623 3164.62 265.952C3242.02 280.617 3304.01 292.837 3346.66 301.391C3367.98 305.668 3384.46 309.028 3395.62 311.319C3401.19 312.465 3405.44 313.343 3408.29 313.935C3409.41 314.168 3410.31 314.356 3411 314.499V944.563C3410.32 944.687 3409.43 944.847 3408.33 945.045C3405.48 945.559 3401.23 946.321 3395.65 947.316C3384.48 949.306 3367.97 952.225 3346.63 955.94C3303.93 963.371 3241.86 973.986 3164.38 986.724C3009.42 1012.2 2792.81 1046.17 2546.2 1080.14C2052.95 1148.08 1439.82 1216 960 1216C480.184 1216 -132.953 1148.08 -626.197 1080.14C-872.806 1046.17 -1089.42 1012.2 -1244.38 986.724C-1321.86 973.986 -1383.93 963.371 -1426.63 955.94C-1447.97 952.225 -1464.48 949.306 -1475.65 947.316C-1481.23 946.321 -1485.48 945.559 -1488.33 945.045C-1489.43 944.847 -1490.32 944.687 -1491 944.563V314.499C-1490.31 314.356 -1489.41 314.168 -1488.29 313.935C-1485.44 313.343 -1481.19 312.465 -1475.62 311.319C-1464.46 309.028 -1447.98 305.668 -1426.66 301.391C-1384.01 292.837 -1322.02 280.617 -1244.62 265.952C-1089.81 236.623 -873.39 197.517 -626.909 158.412C-133.918 80.1965 479.202 2 960 2Z" fill="#E65222" stroke="black" stroke-width="4"/>
</svg>
