<svg width="24" height="24" viewBox="0 0 24 24" fill="none" xmlns="http://www.w3.org/2000/svg">
<path d="M17.4084 8.0625H17.2048C17.2022 8.0625 17.1999 8.06363 17.1973 8.06363C17.1932 8.06363 17.1891 8.0625 17.1849 8.0625H6.58856C6.12169 8.0625 5.74219 8.44238 5.74219 8.90887C5.74219 9.37538 6.12206 9.75562 6.58856 9.75562H17.4084C17.8753 9.75562 18.2552 9.37575 18.2552 8.90887C18.2552 8.442 17.8753 8.0625 17.4084 8.0625Z" fill="#E65222"/>
<path d="M15.1501 5.5853C15.1385 5.58755 15.1167 5.58905 15.0976 5.58905C14.9228 5.58905 14.7713 5.4683 14.732 5.29805C14.5707 4.59717 13.9565 4.1078 13.2376 4.1078C12.8015 4.1078 12.3976 4.29117 12.0998 4.6238C12.029 4.70292 11.9277 4.74867 11.8212 4.74867H11.8205C11.7143 4.74867 11.6135 4.70367 11.5422 4.62492C11.2403 4.29117 10.8346 4.10742 10.3992 4.10742C9.68184 4.10742 9.05072 4.61855 8.89847 5.3228C8.86547 5.47505 8.74172 5.5913 8.58759 5.61417C7.74684 5.74017 7.13672 6.44855 7.13672 7.2983C7.13672 7.30317 7.13784 7.30692 7.13784 7.31217H16.859C16.859 7.3073 16.8601 7.30355 16.8601 7.2983C16.8601 6.3533 16.0932 5.58455 15.1501 5.58455V5.5853Z" fill="#E65222"/>
<path d="M9.89062 14.5155C9.89062 14.7656 10.0939 14.9689 10.3436 14.9689C10.5506 14.9689 10.7186 15.1369 10.7186 15.3439C10.7186 15.594 10.9219 15.7969 11.172 15.7969C11.4221 15.7969 11.625 15.5936 11.625 15.3439V14.0625H10.3436C10.0935 14.0625 9.89062 14.2658 9.89062 14.5155Z" fill="#E65222"/>
<path d="M11.172 11.5762C10.9219 11.5762 10.7186 11.7794 10.7186 12.0292C10.7186 12.2362 10.5506 12.4042 10.3436 12.4042C10.0935 12.4042 9.89062 12.6074 9.89062 12.8575C9.89062 13.1077 10.0939 13.3105 10.3436 13.3105H11.625V12.0292C11.625 11.779 11.4217 11.5762 11.172 11.5762Z" fill="#E65222"/>
<path d="M13.6564 12.4042C13.4494 12.4042 13.2814 12.2362 13.2814 12.0292C13.2814 11.779 13.0781 11.5762 12.828 11.5762C12.5779 11.5762 12.375 11.7794 12.375 12.0292V13.3105H13.6564C13.9065 13.3105 14.1094 13.1073 14.1094 12.8575C14.1094 12.6078 13.9061 12.4042 13.6564 12.4042Z" fill="#E65222"/>
<path d="M20.1002 14.4776C20.1268 14.2953 20.1399 14.1097 20.1399 13.9226C20.1399 13.3582 20.0244 12.8084 19.7964 12.2891C19.4454 11.4764 18.8289 10.8026 18.0527 10.3672C17.8558 10.4542 17.639 10.5048 17.4099 10.5048H6.59005C6.36317 10.5048 6.1483 10.4557 5.95292 10.3702C5.62105 10.5562 5.31392 10.7748 5.05067 11.0381C4.68767 11.4011 4.4023 11.8211 4.20205 12.2868C3.97292 12.8092 3.85742 13.3589 3.85742 13.9229C3.85742 14.1104 3.87055 14.2961 3.8968 14.4746C4.07717 15.8009 4.88755 16.9331 6.06917 17.5439C6.23342 17.4866 6.40667 17.4494 6.59042 17.4494H17.4103C17.5944 17.4494 17.7684 17.4869 17.933 17.5447C18.3084 17.3501 18.65 17.1048 18.9467 16.8078C19.5714 16.1793 19.9813 15.3517 20.1005 14.4787L20.1002 14.4776ZM14.8607 14.5136C14.8607 15.0629 14.4905 15.5276 13.9865 15.6712C13.8429 16.1752 13.3783 16.5453 12.8289 16.5453C12.5075 16.5453 12.2169 16.4167 12.0009 16.2108C11.7849 16.4167 11.4939 16.5453 11.1729 16.5453C10.6235 16.5453 10.1589 16.1752 10.0153 15.6712C9.5113 15.5276 9.14117 15.0629 9.14117 14.5136C9.14117 14.1922 9.2698 13.9016 9.47567 13.6856C9.2698 13.4696 9.14117 13.1786 9.14117 12.8576C9.14117 12.3082 9.5113 11.8436 10.0153 11.6999C10.1589 11.1959 10.6235 10.8258 11.1729 10.8258C11.4943 10.8258 11.7849 10.9544 12.0009 11.1603C12.2169 10.9544 12.5079 10.8258 12.8289 10.8258C13.3783 10.8258 13.8429 11.1959 13.9865 11.6999C14.4905 11.8436 14.8607 12.3082 14.8607 12.8576C14.8607 13.1789 14.732 13.4696 14.5262 13.6856C14.732 13.9016 14.8607 14.1926 14.8607 14.5136Z" fill="#E65222"/>
<path d="M6.58856 18.1992C6.12169 18.1992 5.74219 18.5791 5.74219 19.046C5.74219 19.5128 6.12206 19.8923 6.58856 19.8923H17.4084C17.8753 19.8923 18.2552 19.5125 18.2552 19.046C18.2552 18.5795 17.8753 18.1992 17.4084 18.1992H6.58856Z" fill="#E65222"/>
<path d="M2.3175 14.1539H3.11438C3.11063 14.077 3.10612 14.0005 3.10612 13.9229C3.10612 13.4418 3.17963 12.97 3.32025 12.5137H2.3175C2.1015 12.5137 1.89675 12.5995 1.74113 12.7552C1.5855 12.9108 1.5 13.1152 1.5 13.3315C1.5 13.7849 1.86675 14.1539 2.3175 14.1539Z" fill="#E65222"/>
<path d="M13.6564 14.0605H12.375V15.3419C12.375 15.592 12.5783 15.7949 12.828 15.7949C13.0778 15.7949 13.2814 15.5917 13.2814 15.3419C13.2814 15.1349 13.4494 14.9669 13.6564 14.9669C13.9065 14.9669 14.1094 14.7637 14.1094 14.5135C14.1094 14.2634 13.9061 14.0605 13.6564 14.0605Z" fill="#E65222"/>
<path d="M21.6785 12.5137H20.6758C20.816 12.9693 20.8895 13.4414 20.8895 13.9229C20.8895 14.0002 20.885 14.077 20.8813 14.1539H21.6782C21.8942 14.1539 22.106 14.0662 22.2594 13.9124C22.415 13.7568 22.5005 13.5505 22.5005 13.3312C22.5005 12.8804 22.1319 12.5137 21.6785 12.5137Z" fill="#E65222"/>
</svg>
